<?xml version="1.0" encoding="UTF-8"?>
<!DOCTYPE svg PUBLIC "-//W3C//DTD SVG 1.1//EN" "http://www.w3.org/Graphics/SVG/1.1/DTD/svg11.dtd">
<!-- Creator: CorelDRAW 2021.5 (Evaluation Version) -->
<svg xmlns="http://www.w3.org/2000/svg" xml:space="preserve" width="623.992mm" height="78.0536mm" version="1.1" style="shape-rendering:geometricPrecision; text-rendering:geometricPrecision; image-rendering:optimizeQuality; fill-rule:evenodd; clip-rule:evenodd"
viewBox="0 0 63696.59 7967.65"
 xmlns:xlink="http://www.w3.org/1999/xlink"
 xmlns:xodm="http://www.corel.com/coreldraw/odm/2003">
 <defs>
  <style type="text/css">
   <![CDATA[
    .fil0 {fill:#FFCC2A}
   ]]>
  </style>
 </defs>
 <g id="Layer_x0020_1">
  <metadata id="CorelCorpID_0Corel-Layer"/>
  <g id="_105553207700864">
   <path class="fil0" d="M-0 7967.65l63696.59 0 -143.32 -793.87c-49.29,-420.33 132.35,-546.48 -180.74,-756.4 -150.38,224.85 -108.02,223.5 -108.02,576.84l-216.05 0 0 -324.47c-180.84,0 -418.66,-22.29 -540.1,36.05 -70.84,147.83 3.86,400.05 -67.97,470.85 -82.61,81.41 -104.03,-171.2 -148.07,-254.53 -315.63,7.03 27.57,65.07 -288.06,72.1l0 396.59 -108.03 0 4.58 -1482.74c-6.31,-145.25 15.65,-149.62 -112.99,-177.07 -204.7,-43.69 -353.47,69.33 -539.71,73.49l0 -1189.74c-94.82,0 -198.06,-4.86 -291.07,-3.01 -354.96,7.03 -396.21,225.77 -393.35,579.56 1.21,151.14 13.55,1199.58 -7.24,1257.7 -49.96,139.64 -351.08,32.14 -416.39,-39.79 -92.47,-101.86 -45.45,-435.44 -43.58,-605.32 3.74,-340.34 30.76,-280.34 -151.2,-461.51 -171.33,-170.6 -218.11,-114.74 -533.54,-114.74 0,556.68 40.33,545.38 -507.23,435.77 -388.48,-77.76 -509.1,-75.23 -933.05,-75.23 0,-399.23 -36.9,-668.9 -36.05,-1045.48 0.83,-360.51 0.05,-721.11 0.05,-1081.63 -199.38,-16.61 -359.28,-36.81 -613.47,-37.4 -301.13,-0.7 -301.49,47.6 -525.11,123.19 -415.78,140.53 -301.72,107.46 -301.72,995.79 -5.34,2.52 -15.63,-3.76 -17.53,2.58 -26.88,89.64 -9.81,-1.45 -36.93,7.01 -249.38,77.8 -197.59,439.32 -197.59,675.41l-216.04 0 0 -360.52c-155.49,-74.7 -144.28,28.83 -203.23,-120.98 -56.68,-144.02 -19.06,-908.49 23.19,-996.65 -186.02,-89.37 -296.86,-58.21 -350.02,-298.49 -19.55,-88.35 -0.15,-156.88 -13.35,-239 -23.52,-146.33 -97.53,-145.02 -202,-230.36 -92.41,-75.48 -165.12,-149.43 -226.78,-241.62 -94.05,63.05 -246.5,192.16 -333.65,278.83 -161.25,160.38 -206.47,121.6 -206.47,406.17l-216.04 0c-16.73,71.92 -21.67,89.39 -46.74,169.51 -1.89,6.04 -20.1,64.46 -27.53,80.59 -116.24,252.41 -109.96,23.01 -106.06,470.65 3.72,426.58 96.29,691 -215.74,541.09l0 -1802.64c-117.56,-31.43 -178.12,-102.49 -286.17,-146.11 -95.01,-38.35 -256.49,-46.26 -402.28,-38.99 -280.07,13.97 -175.72,241.33 -175.72,689.84 -159.01,-37.1 -348.47,-205.98 -504.1,-288.42 0,-502.85 70.89,-1030.38 -108.02,-1297.9l-720.14 0 0.3 1514.52c2.36,246.81 69.17,378.49 -144.33,396.27l0 -1009.47c-233.44,-54.46 -634.66,-90.53 -900.3,-108.29 -350.43,-23.42 -301.6,-65.86 -539.35,144.98 -89.05,78.98 -56.51,78.89 -144.67,143.56 -66.98,-58.3 -116.71,-100.46 -201.16,-159.12 -348.2,-241.88 -404.58,-129.3 -879.05,-129.3 0,360.49 -1.13,721.17 0.04,1081.63 0.28,83.88 4.8,174.58 4.08,256.45 -1.94,221.78 -14.13,183.27 -174.5,221.86l-111.07 33c-119.98,36.74 -107.93,29.43 -258.66,29.43 0,-108.76 0.26,-217.07 1.32,-325.8l-8.47 -207.84c-47.25,-229.23 -60.37,-79.51 -138.72,-185.57 -4.53,-6.13 -10.47,-14.89 -14.54,-21.5 -4.21,-6.85 -8.09,-16.88 -11.91,-24.12 -134.96,-255.9 -209.26,-91.31 -259.76,-280.7l-108.03 0 0 108.15c-218.74,0 -337.05,-72.1 -540.1,-72.1l0 -1514.22c-327.47,-27.29 -577.47,-99.08 -871.64,100.68 -393.88,267.46 -246.37,292.13 -241.41,767.75 2.66,255.64 3.36,255.15 -252.05,252.38 -683.69,-7.41 -617.31,133.68 -615.33,-471.81 0.58,-180.24 0.05,-360.58 0.05,-540.84 -111.49,-9.51 -68.08,0.44 -144.03,-36.05 49.26,-211.71 47.36,-304.27 -120.69,-456 -140.6,-126.96 -73.93,39.25 -95.35,-156.9l-468.09 36.05c0,-250.66 65.41,-318.6 -175.46,-329.06 -165.55,-7.19 -373.22,4.58 -544.67,4.58 -159.05,237.81 -108.12,312.09 -108.03,685l0 2451.58c-291.36,-24.27 -168.53,-266.15 -178.01,-506.76 -14.14,-359.13 -249.27,-218.53 -326.09,-394.56 -2.46,-5.24 -2.9,-20.72 -3.02,-17.1l3.04 -487.62c-0.69,-784.5 142.23,-801.84 -397.81,-795.51 -355.16,4.18 -222.82,89.74 -466.38,146.54 0,336.47 -1.13,673.14 0.11,1009.58 1.33,357.8 -36.12,623 -36.12,1009.37 -131.06,-69.43 -174.89,-183.11 -329.25,-119.22 -336.15,139.13 -250.18,495.5 -244.75,806.34 5.12,293.47 32.82,286.3 -254.18,286.3l0 -612.9c-103.68,-24.18 -140.64,-79.42 -228.6,-92.15 -185.12,-26.78 -29.31,-21.99 -95.46,20.05 -221.88,109.06 19.96,163.39 -216.04,288.41 0,-367.3 48.75,-414.53 -108.02,-648.95 -92.47,0 -441.29,-13.62 -504.6,-0.49 -166.86,34.6 -107.53,189.39 -107.53,397.08l-252.04 0c0,-234.97 94.25,-693.68 -252.05,-612.9l0 -576.84c-201.97,-16.83 -355.29,-36.05 -612.12,-36.05 -20.64,-43.06 -29.5,-82.27 -52.67,-127.52 -116.66,-227.8 -70.8,-355 -199.38,-449.32 -142.3,95.41 -115.6,256.66 -184.47,428.18 -3.26,8.12 -7.62,17.07 -10.43,25.62l-18.04 90.08c-32.84,192.68 -46.42,166.29 -219.14,249.27l4.57 1086.16c-8.38,192.85 -32.1,175.68 -220.61,175.68 0,-276.4 0.02,-552.8 0,-829.21 -0.02,-130.01 -5.26,-269.85 -1.51,-398.39l42.02 -267.78c43.91,-433.8 -1007.93,-199.09 -1192.73,-199.09 -7.03,-316.03 -64.98,27.61 -72.02,-288.42 -133.04,-11.09 -127.17,-41.5 -287.03,-37.46 -163.21,4.11 -124.76,33.8 -289.09,37.46 -4.8,215.87 -113.37,248.04 -144.58,40.87 -41.69,-276.7 61.94,-680.33 -47.04,-930.58 -53.73,-123.39 -84.03,-259.03 -96.43,-408.18l-72.02 0c-27.67,253.36 -40.97,-35.06 -108.02,216.32 -128.6,0 -168.1,10.17 -255.51,-32.58 -143.63,-70.23 23.51,-70.56 -246.17,-78.94 -103.73,-3.23 -214.7,3.97 -312.7,17.15 -4.32,0.58 -119.31,16.48 -126.27,17.78 -118.24,22.22 -143.12,74.7 -225.2,99 -78.9,23.36 -101.13,2.63 -164.14,15.91 -141.52,29.82 -113.02,24.47 -114.42,209.91 -1.62,215.24 4.14,436.51 4.14,653.09l-324.07 0c69.23,-144.45 36.01,-444.64 36.01,-648.95 -63.53,-30.52 -116.51,-41.59 -180.04,-72.1 0,-243.59 19.13,-214.61 -103.67,-364.89 -62.22,-76.15 -112.3,-94.79 -220.4,-103.79 0,-192.29 -0.13,-384.57 0.01,-576.85 0.12,-171.97 51.62,-450.09 -72.02,-540.78l0 1117.63c-174.87,3.9 -200.03,-2.39 -216.05,144.21 -254.32,-5.68 -113.67,-102.64 -430.06,-110.65 -222.72,-5.64 -340.45,34.85 -506.12,38.55l0 1514.21c-240.97,0 -300.84,72.11 -540.11,72.11l0 -108.15 -108.02 0c-17.14,156.9 -28.89,100.55 -216.04,144.21 -24.68,106.07 -36.01,110.03 -36.01,252.37 -84.65,-40.68 -131.38,-31.43 -216.04,-72.11 0,-390.86 80.73,-858.27 -107.54,-1190.21 -299.6,-528.22 -19.43,-496.75 -209.91,-835.37 -3.86,-6.87 -10.41,-14.89 -13.98,-22.05l-128.06 -376.51c-77.29,-205.15 -44.61,-425.08 -44.61,-640.34l-36 0c0,414.26 4.21,502.06 -114.97,858.3l-173.09 800.13c-106,-38.42 -161.63,-149.4 -216.05,-252.37l-288.05 0 -72.02 -540.8 0 576.84c-106.92,51.38 -104.1,11.18 -206.57,81.6 -68.7,47.22 -111.6,108.11 -153.51,170.77 -177.09,-64.18 37.91,-19.71 -130.37,-85.78 -100.7,-39.54 -116.29,-5.15 -212.88,-39.23l-137.82 -78.32c-181.08,-63.32 -482.93,-88.65 -651.99,-29.87l-343.24 125.04c-48.47,-181.75 -95.56,-70.62 -144.03,-252.37l-72.01 0c-70.39,846.98 -144.03,-188.37 -144.03,1442.1l-144.02 0c-2.96,-133.1 22.4,-183.32 -288.42,-182.75 -173.3,0.32 -273.81,15.68 -287.69,182.75 -920.48,0 -625.22,274.35 -610.71,539.38 20.33,371.18 -1.07,808.1 -73.43,1119.05l-144.03 0 0 -1153.69c-301.96,-70.43 -376.75,-216.32 -792.15,-216.32l-180.04 -504.74 -108.02 0c-24.81,106.6 -16.12,102.42 -33.72,218.61 -31.44,207.56 -41.64,111.03 -137.96,258.44 -4.24,6.48 -10,15.31 -14.1,21.94 -4.09,6.64 -10.12,15.19 -14.01,22.03 -170.85,300.99 79.91,1049.94 -62.56,1275.1l-181.36 212.24c-362.56,379.88 -312.45,-253.22 -310.63,-459.92 3.32,-375.69 -52.87,-181.13 -109.84,-394.76 -302.46,25.2 -216.04,427.96 -216.04,648.95l-252.05 0 0 -396.58 -576.11 0c-161.92,187.07 -102.24,250.03 -108.02,648.95 -226.97,-52.95 -107.48,-19.4 -149.21,-175.67 -59.2,-221.66 -112.32,-141.06 -250.97,-83.6 -0.59,0.26 -21.52,115.7 -60.51,-33.82 -31.72,-121.59 18.63,-163.68 28.61,-283.75 -136,-31.73 -225.24,-72.11 -396.08,-72.11l0 -576.84c-102.82,-68.94 -118.71,-86.36 -264.06,-132.19 -158.39,-49.96 -237.24,-17.95 -312.06,-120.18l0 -1081.58c-422.22,-223.7 -361.13,-180.26 -864.17,-180.26l0 829.21c-491.61,0 -360.07,40.28 -360.07,-937.37 -63.52,-30.52 -116.5,-41.59 -180.04,-72.11 0,-903.82 78.59,-721.05 -828.16,-721.05 0,206.25 32.67,269.35 -56.76,412.07 -122.18,195.04 -109.57,130.51 -51.26,381.08 -167.41,88.7 -148.11,27.49 -146.94,285.51 5.58,1236.74 21.15,602.81 -373.58,923.86 -4.02,3.28 -11.69,13.24 -19.59,16.42 -217.72,-189.48 -718.18,-108.15 -1008.2,-108.15l0 -829.21c-795.95,-533.67 -298.13,-288.42 -1116.23,-288.42l0 1478.16 -576.11 108.16 0 -108.16c-161.13,43.09 -130.14,98.98 -324.06,144.22l0 216.32 -180.04 0c0,986.68 104.49,576.84 -540.1,576.84 0,-421.75 -1.43,-843.46 3.16,-1265.02 3.11,-286.43 -23.55,-295.16 -672.15,-270 -212.08,8.24 -33.27,-30.66 -206.08,-77.13 -31.96,-8.58 -1139.28,102.48 -1160.27,115.03 -148.33,88.61 5.03,1012.28 -89.08,1208.69 -200.75,-21.99 26.06,-108.15 -576.11,-108.15l0 -829.21 -108.02 0c0,-1267.96 236.87,-1081.58 -756.15,-1081.58 -189.08,357.78 -108.02,1164.18 -108.02,1622.36 -102.79,54.46 -157.76,80.99 -252.05,144.22l0 1009.47c-367.92,0 -252.04,-101.15 -252.04,-793.16 0,-360.53 0,-721.06 0,-1081.59 -449.37,0 -485.33,-37.69 -864.17,216.32 0,182.79 36,196.43 36,396.59l-72.02 0c0,-242.9 -41.41,-207.89 -207.62,-368.96 -99.25,-96.19 -222.48,-173.61 -260.47,-316.05 -143.83,165.67 -311.1,330.38 -504.11,432.63 0,138.8 16.51,297.29 -25.55,407.05 -51.13,133.48 -149.19,157.34 -298.51,169.79l0 1838.69c-147.15,-107.95 -18.08,-385.25 -92.33,-556.49 -91.6,-211.24 -366.84,-3.88 -539.19,-109.07 -111.56,-68.1 -52.61,-1068.44 -52.61,-1245.22 -552.02,-128.77 -335.76,-218.91 -1045.43,-217.56 -197.17,0.38 -239.33,33.83 -394.85,37.29l0 1370c-452.13,0 -284.99,164.91 -612.12,252.37 0,781.35 -9.5,416.05 -529.1,623.92l-272.62 159.67c-79.82,48.76 -20.88,9.43 -62.45,45.62 -113.96,-42.57 -51.64,78.28 -72.02,-108.15 -573.26,0 -468.09,79.12 -468.09,-504.74 -306.34,0 -450.87,-25.4 -642.26,186.13 -79.86,88.27 -72.3,53.31 -80.61,207.71 -18.61,345.31 2.74,766.13 2.74,1120.37 -329.67,-27.47 69.2,-216.32 -432.09,-216.32 0,-432.38 -3.16,-865.95 0.3,-1298.18 0.69,-87.12 11.42,-236.15 -9.64,-314.83 -86.53,-323.22 -385.83,-297.78 -710.8,-297.78 0,261.3 44.89,808.93 -20.46,1025.05 -59.76,197.63 -52.33,237.98 -51.6,489.11 0.51,180.25 0.04,360.58 0.04,540.85 -186.86,-49.96 -168.8,-136.87 -363.19,32.36 -241.25,210.04 92.51,618.19 -320.95,652.63 0,-426.6 -104.03,-245.91 -142.02,-506.74 -22.37,-153.6 -2,-508.32 -2,-682.99 -331.54,-27.62 154.71,-240.78 -720.1,-288.95 -326.9,-18 -641.08,72.63 -936.23,72.63l-25.39 154.84c-46.25,142.45 24.87,-90.46 -21.65,50.43 -14.93,45.22 -21.86,71.74 -24.98,99.67l0 1641.9z"/>
   <path class="fil0" d="M9433.86 2343.42l10.75 -10.74c-0.71,0.69 -14.33,7.16 -10.75,10.74z"/>
  </g>
 </g>
</svg>
